<svg xmlns="http://www.w3.org/2000/svg" width="256" height="256" viewBox="0 0 100 100"><rect width="100" height="100" rx="20" fill="#000000"></rect><path fill="#ffffff" d="M21.15 86.32L29.76 57.50L2.60 21.81Q2.60 20.67 3.83 20.01Q5.06 19.35 6.03 19.35L6.03 19.35L31.78 50.82Q32.13 50.11 33.06 47.65Q33.98 45.19 35.21 41.76Q36.44 38.33 37.85 34.25Q39.25 30.16 40.53 26.12Q41.80 22.08 42.77 18.52Q43.74 14.96 44.17 12.50L44.17 12.50Q44.79 11.88 45.54 12.06Q46.28 12.23 46.94 12.76Q47.60 13.29 48.04 14.03Q48.48 14.78 48.48 15.31L48.48 15.31Q45.40 24.54 43.30 30.95Q41.19 37.37 39.78 41.81Q38.37 46.25 37.54 48.97Q36.70 51.69 36.22 53.54Q35.74 55.39 35.39 56.66Q35.03 57.93 34.64 59.34Q34.24 60.75 33.67 62.68Q33.10 64.61 32.05 67.78Q30.99 70.94 29.32 75.73Q27.65 80.52 25.19 87.64L25.19 87.64Q23.87 87.64 22.51 87.64Q21.15 87.64 21.15 86.32L21.15 86.32ZM52.26 87.64L52.44 21.72Q52.00 20.23 51.78 19.04Q51.56 17.86 51.73 16.45L51.73 16.45Q51.82 16.01 51.95 15.48Q52.08 14.96 52.39 14.65Q52.70 14.34 53.23 14.21Q53.75 14.08 54.63 14.43L54.63 14.43Q55.16 14.69 55.69 15.35Q56.22 16.01 56.61 16.89Q57.01 17.77 57.27 18.56Q57.53 19.35 57.62 19.88L57.62 19.88Q59.99 18.47 62.90 17.02Q65.80 15.57 68.92 14.56Q72.04 13.55 75.20 13.07Q78.36 12.58 81.26 12.93L81.26 12.93Q82.23 13.02 83.51 13.42Q84.78 13.81 85.88 14.47Q86.98 15.13 87.72 16.05Q88.47 16.98 88.30 18.21L88.30 18.21Q88.30 20.58 87.28 23.13Q86.27 25.68 84.69 28.23Q83.11 30.78 81.13 33.24Q79.15 35.70 77.27 37.85Q75.38 40.00 73.71 41.76Q72.04 43.52 71.16 44.66L71.16 44.66Q74.15 43.52 78.19 42.69Q82.23 41.85 86.14 42.11Q90.05 42.38 93.17 44.05Q96.29 45.72 97.35 49.50L97.35 49.50Q97.61 51.78 96.47 54.64Q95.33 57.50 93.22 60.57Q91.11 63.65 88.25 66.77Q85.40 69.89 82.28 72.79Q79.15 75.69 75.99 78.15Q72.83 80.61 70.15 82.41Q67.47 84.21 65.44 85.14Q63.42 86.06 62.54 85.88L62.54 85.88L60.43 82.37Q60.87 82.46 63.25 80.92Q65.62 79.38 68.92 76.88Q72.21 74.37 75.99 71.16Q79.77 67.95 83.07 64.70Q86.36 61.45 88.65 58.42Q90.93 55.39 91.28 53.10L91.28 53.10Q91.72 50.02 89.66 48.66Q87.59 47.30 84.08 47.30Q80.56 47.30 76.25 48.49Q71.95 49.67 68.08 51.56Q64.21 53.45 61.31 55.91Q58.41 58.37 57.71 61.01L57.71 61.01Q57.36 63.74 57.27 66.64Q57.18 69.54 57.14 72.48Q57.09 75.42 57.05 78.33Q57.01 81.23 56.65 83.86L56.65 83.86Q56.39 85.80 55.91 87.03Q55.42 88.26 53.32 87.91L53.32 87.91Q53.14 87.91 52.70 87.82Q52.26 87.73 52.26 87.64L52.26 87.64ZM57.80 28.58L57.80 28.58Q57.53 30.34 57.40 33.06Q57.27 35.79 57.27 38.69Q57.27 41.59 57.49 44.31Q57.71 47.04 58.15 48.88L58.15 48.88Q59.73 47.56 62.50 45.19Q65.27 42.82 68.39 39.87Q71.51 36.93 74.50 33.68Q77.49 30.42 79.46 27.39Q81.44 24.36 81.97 21.86Q82.49 19.35 80.74 17.86L80.74 17.86Q79.15 17.68 76.91 17.81Q74.67 17.94 72.21 18.43Q69.75 18.91 67.29 19.79Q64.83 20.67 62.81 21.94Q60.79 23.22 59.42 24.89Q58.06 26.56 57.80 28.58Z"></path></svg>